<svg xmlns="http://www.w3.org/2000/svg" viewBox="0 0 292 470" width="292" height="470">
  <defs>
    <linearGradient id="pg" x1="0" y1="0" x2="1" y2="1">
      <stop offset="0%" stop-color="#141008"/><stop offset="55%" stop-color="#0a0e17"/><stop offset="100%" stop-color="#05070c"/>
    </linearGradient>
    <radialGradient id="pglow" cx="52%" cy="42%" r="58%">
      <stop offset="0%" stop-color="#d4a94a" stop-opacity="0.34"/><stop offset="100%" stop-color="#d4a94a" stop-opacity="0"/>
    </radialGradient>
  </defs>
  <rect width="292" height="470" fill="url(#pg)"/>
  <rect width="292" height="470" fill="url(#pglow)"/>
  <g stroke="#d4a94a" stroke-opacity="0.32" stroke-width="1.1" fill="none">
    <path d="M40 300 C 96 268, 60 226, 118 196 C 176 166, 140 124, 196 96 C 232 78, 244 60, 250 44"/>
  </g>
  <g fill="none" stroke="#e6c06b" stroke-width="2.2" stroke-linecap="round">
    <path d="M52 268 C 108 246, 78 206, 132 182"/>
    <path d="M132 182 C 186 158, 158 118, 212 96"/>
  </g>
  <g>
    <circle cx="52" cy="268" r="13" fill="#d4a94a" fill-opacity="0.95"/>
    <circle cx="92" cy="238" r="8.5" fill="#e6c06b" fill-opacity="0.8"/>
    <circle cx="132" cy="182" r="16" fill="#d4a94a"/>
    <circle cx="172" cy="146" r="8.5" fill="#e6c06b" fill-opacity="0.8"/>
    <circle cx="212" cy="96" r="12" fill="#d4a94a" fill-opacity="0.92"/>
    <circle cx="238" cy="188" r="6" fill="#e6c06b" fill-opacity="0.55"/>
    <circle cx="72" cy="150" r="5.5" fill="#e6c06b" fill-opacity="0.45"/>
    <circle cx="196" cy="256" r="7" fill="#d4a94a" fill-opacity="0.5"/>
  </g>
  <g stroke="#d4a94a" stroke-opacity="0.5" stroke-width="1" stroke-dasharray="3 4">
    <path d="M132 182 L238 188 M132 182 L72 150 M132 182 L196 256"/>
  </g>
</svg>